<mxfile host="Electron" modified="2024-02-28T19:53:25.729Z" agent="Mozilla/5.0 (Windows NT 10.0; Win64; x64) AppleWebKit/537.36 (KHTML, like Gecko) draw.io/21.2.1 Chrome/112.0.5615.87 Electron/24.1.2 Safari/537.36" etag="g-3kDPEgWxYLYw49_gDU" version="21.2.1" type="device">
  <diagram name="PÃ¡gina-1" id="yr4nYQHSkqKsGlPY8nab">
    <mxGraphModel dx="880" dy="532" grid="1" gridSize="10" guides="1" tooltips="1" connect="1" arrows="1" fold="1" page="1" pageScale="1" pageWidth="827" pageHeight="1169" math="0" shadow="0">
      <root>
        <mxCell id="0" />
        <mxCell id="1" parent="0" />
        <mxCell id="nE87Uf0MARaekFjsQXmO-26" value="" style="endArrow=none;dashed=1;html=1;rounded=0;" edge="1" parent="1">
          <mxGeometry width="50" height="50" relative="1" as="geometry">
            <mxPoint x="230" y="430" as="sourcePoint" />
            <mxPoint x="870" y="430" as="targetPoint" />
          </mxGeometry>
        </mxCell>
        <mxCell id="nE87Uf0MARaekFjsQXmO-18" value="" style="endArrow=none;dashed=1;html=1;rounded=0;" edge="1" parent="1">
          <mxGeometry width="50" height="50" relative="1" as="geometry">
            <mxPoint x="130" y="510" as="sourcePoint" />
            <mxPoint x="130" y="200" as="targetPoint" />
          </mxGeometry>
        </mxCell>
        <mxCell id="nE87Uf0MARaekFjsQXmO-19" value="" style="endArrow=none;dashed=1;html=1;rounded=0;" edge="1" parent="1">
          <mxGeometry width="50" height="50" relative="1" as="geometry">
            <mxPoint x="269.5" y="510" as="sourcePoint" />
            <mxPoint x="269.5" y="200" as="targetPoint" />
          </mxGeometry>
        </mxCell>
        <mxCell id="nE87Uf0MARaekFjsQXmO-20" value="" style="endArrow=none;dashed=1;html=1;rounded=0;" edge="1" parent="1">
          <mxGeometry width="50" height="50" relative="1" as="geometry">
            <mxPoint x="410" y="510" as="sourcePoint" />
            <mxPoint x="410" y="200" as="targetPoint" />
          </mxGeometry>
        </mxCell>
        <mxCell id="nE87Uf0MARaekFjsQXmO-21" value="" style="endArrow=none;dashed=1;html=1;rounded=0;" edge="1" parent="1">
          <mxGeometry width="50" height="50" relative="1" as="geometry">
            <mxPoint x="549.5" y="510" as="sourcePoint" />
            <mxPoint x="549.5" y="200" as="targetPoint" />
          </mxGeometry>
        </mxCell>
        <mxCell id="nE87Uf0MARaekFjsQXmO-22" value="" style="endArrow=none;dashed=1;html=1;rounded=0;" edge="1" parent="1">
          <mxGeometry width="50" height="50" relative="1" as="geometry">
            <mxPoint x="690" y="510" as="sourcePoint" />
            <mxPoint x="690" y="200" as="targetPoint" />
          </mxGeometry>
        </mxCell>
        <mxCell id="nE87Uf0MARaekFjsQXmO-23" value="" style="endArrow=none;dashed=1;html=1;rounded=0;" edge="1" parent="1">
          <mxGeometry width="50" height="50" relative="1" as="geometry">
            <mxPoint x="829.5" y="510" as="sourcePoint" />
            <mxPoint x="829.5" y="200" as="targetPoint" />
          </mxGeometry>
        </mxCell>
        <mxCell id="nE87Uf0MARaekFjsQXmO-24" value="" style="endArrow=none;dashed=1;html=1;rounded=0;" edge="1" parent="1">
          <mxGeometry width="50" height="50" relative="1" as="geometry">
            <mxPoint x="90" y="240" as="sourcePoint" />
            <mxPoint x="870" y="240" as="targetPoint" />
          </mxGeometry>
        </mxCell>
        <mxCell id="nE87Uf0MARaekFjsQXmO-1" value="Actor" style="shape=umlActor;verticalLabelPosition=bottom;verticalAlign=top;html=1;outlineConnect=0;" vertex="1" parent="1">
          <mxGeometry x="115" y="110" width="30" height="60" as="geometry" />
        </mxCell>
        <mxCell id="nE87Uf0MARaekFjsQXmO-2" value="" style="rounded=0;whiteSpace=wrap;html=1;" vertex="1" parent="1">
          <mxGeometry x="100" y="210" width="60" height="60" as="geometry" />
        </mxCell>
        <mxCell id="nE87Uf0MARaekFjsQXmO-3" value="" style="rounded=0;whiteSpace=wrap;html=1;" vertex="1" parent="1">
          <mxGeometry x="240" y="210" width="60" height="60" as="geometry" />
        </mxCell>
        <mxCell id="nE87Uf0MARaekFjsQXmO-4" value="" style="rounded=0;whiteSpace=wrap;html=1;" vertex="1" parent="1">
          <mxGeometry x="240" y="370" width="60" height="130" as="geometry" />
        </mxCell>
        <mxCell id="nE87Uf0MARaekFjsQXmO-5" value="" style="rounded=0;whiteSpace=wrap;html=1;" vertex="1" parent="1">
          <mxGeometry x="380" y="210" width="60" height="130" as="geometry" />
        </mxCell>
        <mxCell id="nE87Uf0MARaekFjsQXmO-6" value="" style="rounded=0;whiteSpace=wrap;html=1;" vertex="1" parent="1">
          <mxGeometry x="380" y="370" width="60" height="130" as="geometry" />
        </mxCell>
        <mxCell id="nE87Uf0MARaekFjsQXmO-7" value="" style="rounded=0;whiteSpace=wrap;html=1;" vertex="1" parent="1">
          <mxGeometry x="520" y="370" width="60" height="130" as="geometry" />
        </mxCell>
        <mxCell id="nE87Uf0MARaekFjsQXmO-8" value="" style="rounded=0;whiteSpace=wrap;html=1;" vertex="1" parent="1">
          <mxGeometry x="520" y="210" width="60" height="130" as="geometry" />
        </mxCell>
        <mxCell id="nE87Uf0MARaekFjsQXmO-9" value="" style="rounded=0;whiteSpace=wrap;html=1;" vertex="1" parent="1">
          <mxGeometry x="660" y="210" width="60" height="130" as="geometry" />
        </mxCell>
        <mxCell id="nE87Uf0MARaekFjsQXmO-10" value="" style="rounded=0;whiteSpace=wrap;html=1;" vertex="1" parent="1">
          <mxGeometry x="660" y="370" width="60" height="130" as="geometry" />
        </mxCell>
        <mxCell id="nE87Uf0MARaekFjsQXmO-11" value="" style="rounded=0;whiteSpace=wrap;html=1;" vertex="1" parent="1">
          <mxGeometry x="800" y="370" width="60" height="130" as="geometry" />
        </mxCell>
        <mxCell id="nE87Uf0MARaekFjsQXmO-12" value="" style="rounded=0;whiteSpace=wrap;html=1;" vertex="1" parent="1">
          <mxGeometry x="800" y="210" width="60" height="130" as="geometry" />
        </mxCell>
        <mxCell id="nE87Uf0MARaekFjsQXmO-13" value="gestor de clientes" style="ellipse;whiteSpace=wrap;html=1;" vertex="1" parent="1">
          <mxGeometry x="210" y="90" width="120" height="80" as="geometry" />
        </mxCell>
        <mxCell id="nE87Uf0MARaekFjsQXmO-14" value="gestor de pedidos" style="ellipse;whiteSpace=wrap;html=1;" vertex="1" parent="1">
          <mxGeometry x="350" y="90" width="120" height="80" as="geometry" />
        </mxCell>
        <mxCell id="nE87Uf0MARaekFjsQXmO-15" value="gestor de materia primas" style="ellipse;whiteSpace=wrap;html=1;" vertex="1" parent="1">
          <mxGeometry x="490" y="90" width="120" height="80" as="geometry" />
        </mxCell>
        <mxCell id="nE87Uf0MARaekFjsQXmO-16" value="gestor de producto terminado" style="ellipse;whiteSpace=wrap;html=1;" vertex="1" parent="1">
          <mxGeometry x="630" y="90" width="120" height="80" as="geometry" />
        </mxCell>
        <mxCell id="nE87Uf0MARaekFjsQXmO-17" value="database" style="ellipse;whiteSpace=wrap;html=1;aspect=fixed;" vertex="1" parent="1">
          <mxGeometry x="790" y="90" width="80" height="80" as="geometry" />
        </mxCell>
      </root>
    </mxGraphModel>
  </diagram>
</mxfile>
